{
  "accessors": [
    {
      "bufferView": 2,
      "componentType": 5126,
      "count": 11975,
      "max": [
        3.1209802627563477,
        11.583386421203613,
        8.790203094482422
      ],
      "min": [
        -3.121426582336426,
        -11.621164321899414,
        0.00014588236808776855
      ],
      "type": "VEC3"
    },
    {
      "bufferView": 2,
      "byteOffset": 143700,
      "componentType": 5126,
      "count": 11975,
      "max": [
        1.0,
        1.0,
        1.0
      ],
      "min": [
        -1.0,
        -1.0,
        -1.0
      ],
      "type": "VEC3"
    },
    {
      "bufferView": 3,
      "componentType": 5126,
      "count": 11975,
      "max": [
        1.0,
        1.0,
        1.0,
        1.0
      ],
      "min": [
        -1.0,
        -1.0,
        -1.0,
        -1.0
      ],
      "type": "VEC4"
    },
    {
      "bufferView": 1,
      "componentType": 5126,
      "count": 11975,
      "max": [
        0.992264986038208,
        0.9922780394554138
      ],
      "min": [
        0.007721837144345045,
        0.007721818517893553
      ],
      "type": "VEC2"
    },
    {
      "bufferView": 0,
      "componentType": 5125,
      "count": 32202,
      "type": "SCALAR"
    },
    {
      "bufferView": 2,
      "byteOffset": 287400,
      "componentType": 5126,
      "count": 249,
      "max": [
        3.102180004119873,
        4.740302085876465,
        4.932533264160156
      ],
      "min": [
        -3.102626323699951,
        -1.4192476272583008,
        1.499192476272583
      ],
      "type": "VEC3"
    },
    {
      "bufferView": 2,
      "byteOffset": 290388,
      "componentType": 5126,
      "count": 249,
      "max": [
        1.0,
        1.0,
        3.523097091839844e-10
      ],
      "min": [
        -1.0,
        -1.0,
        -9.010133794618014e-08
      ],
      "type": "VEC3"
    },
    {
      "bufferView": 3,
      "byteOffset": 191600,
      "componentType": 5126,
      "count": 249,
      "max": [
        1.0,
        1.2016105301881908e-06,
        1.0,
        1.0
      ],
      "min": [
        -1.0,
        -4.004188667749986e-06,
        -8.921212611312512e-06,
        1.0
      ],
      "type": "VEC4"
    },
    {
      "bufferView": 1,
      "byteOffset": 95800,
      "componentType": 5126,
      "count": 249,
      "max": [
        0.9979971051216125,
        0.7897642254829407
      ],
      "min": [
        0.002002912573516369,
        0.0020029176957905293
      ],
      "type": "VEC2"
    },
    {
      "bufferView": 0,
      "byteOffset": 128808,
      "componentType": 5125,
      "count": 528,
      "type": "SCALAR"
    },
    {
      "bufferView": 2,
      "byteOffset": 293376,
      "componentType": 5126,
      "count": 8283,
      "max": [
        2.4843318462371826,
        4.633808612823486,
        2.2339868545532227
      ],
      "min": [
        -2.4762938022613525,
        -4.098135471343994,
        0.40307408571243286
      ],
      "type": "VEC3"
    },
    {
      "bufferView": 2,
      "byteOffset": 392772,
      "componentType": 5126,
      "count": 8283,
      "max": [
        0.998694658279419,
        0.9975430369377136,
        0.9999947547912598
      ],
      "min": [
        -0.9986196756362915,
        -0.9976913928985596,
        -0.9999417066574097
      ],
      "type": "VEC3"
    },
    {
      "bufferView": 3,
      "byteOffset": 195584,
      "componentType": 5126,
      "count": 8283,
      "max": [
        0.9998828768730164,
        0.9999268651008606,
        0.9998911619186401,
        1.0
      ],
      "min": [
        -0.9998830556869507,
        -0.9992558360099792,
        -0.9963974952697754,
        1.0
      ],
      "type": "VEC4"
    },
    {
      "bufferView": 1,
      "byteOffset": 97792,
      "componentType": 5126,
      "count": 8283,
      "max": [
        0.9982097744941711,
        0.9770174622535706
      ],
      "min": [
        0.0007776319980621338,
        0.0017692792462185025
      ],
      "type": "VEC2"
    },
    {
      "bufferView": 0,
      "byteOffset": 130920,
      "componentType": 5125,
      "count": 24864,
      "type": "SCALAR"
    }
  ],
  "asset": {
    "extras": {
      "author": "Pikas (https://sketchfab.com/Pikas)",
      "license": "CC-BY-4.0 (http://creativecommons.org/licenses/by/4.0/)",
      "source": "https://sketchfab.com/3d-models/boat-35f5fc620ea54e02ab81ed4d45574775",
      "title": "Boat"
    },
    "generator": "Sketchfab-15.61.0",
    "version": "2.0"
  },
  "bufferViews": [
    {
      "buffer": 0,
      "byteLength": 230376,
      "name": "floatBufferViews",
      "target": 34963
    },
    {
      "buffer": 0,
      "byteLength": 164056,
      "byteOffset": 230376,
      "byteStride": 8,
      "name": "floatBufferViews",
      "target": 34962
    },
    {
      "buffer": 0,
      "byteLength": 492168,
      "byteOffset": 394432,
      "byteStride": 12,
      "name": "floatBufferViews",
      "target": 34962
    },
    {
      "buffer": 0,
      "byteLength": 328112,
      "byteOffset": 886600,
      "byteStride": 16,
      "name": "floatBufferViews",
      "target": 34962
    }
  ],
  "buffers": [
    {
      "byteLength": 1214712,
      "uri": "scene.bin"
    }
  ],
  "extensionsUsed": [
    "KHR_materials_specular",
    "KHR_materials_emissive_strength"
  ],
  "images": [
    {
      "uri": "textures/Boat_baseColor.png"
    },
    {
      "uri": "textures/Boat_metallicRoughness.png"
    },
    {
      "uri": "textures/Boat_normal.png"
    },
    {
      "uri": "textures/Boat_specularf0.png"
    },
    {
      "uri": "textures/Curtains_baseColor.png"
    },
    {
      "uri": "textures/Curtains_metallicRoughness.png"
    },
    {
      "uri": "textures/Curtains_emissive.png"
    },
    {
      "uri": "textures/Curtains_normal.png"
    },
    {
      "uri": "textures/Curtains_specularf0.png"
    },
    {
      "uri": "textures/Ropes_baseColor.png"
    },
    {
      "uri": "textures/Ropes_metallicRoughness.png"
    },
    {
      "uri": "textures/Ropes_normal.png"
    },
    {
      "uri": "textures/Ropes_specularf0.png"
    }
  ],
  "materials": [
    {
      "doubleSided": true,
      "extensions": {
        "KHR_materials_specular": {
          "specularColorFactor": [
            1.0,
            1.0,
            1.0
          ],
          "specularFactor": 1.0,
          "specularTexture": {
            "index": 3
          }
        }
      },
      "name": "Boat",
      "normalTexture": {
        "index": 2
      },
      "occlusionTexture": {
        "index": 1
      },
      "pbrMetallicRoughness": {
        "baseColorTexture": {
          "index": 0
        },
        "metallicRoughnessTexture": {
          "index": 1
        }
      }
    },
    {
      "alphaMode": "BLEND",
      "doubleSided": true,
      "emissiveFactor": [
        1.0,
        1.0,
        1.0
      ],
      "emissiveTexture": {
        "index": 6
      },
      "extensions": {
        "KHR_materials_emissive_strength": {
          "emissiveStrength": 10.0
        },
        "KHR_materials_specular": {
          "specularColorFactor": [
            1.0,
            1.0,
            1.0
          ],
          "specularFactor": 1.0,
          "specularTexture": {
            "index": 8
          }
        }
      },
      "name": "Curtains",
      "normalTexture": {
        "index": 7
      },
      "occlusionTexture": {
        "index": 5
      },
      "pbrMetallicRoughness": {
        "baseColorFactor": [
          1.0,
          1.0,
          1.0,
          0.8091453231095561
        ],
        "baseColorTexture": {
          "index": 4
        },
        "metallicRoughnessTexture": {
          "index": 5
        }
      }
    },
    {
      "doubleSided": true,
      "extensions": {
        "KHR_materials_specular": {
          "specularColorFactor": [
            1.0,
            1.0,
            1.0
          ],
          "specularFactor": 1.0,
          "specularTexture": {
            "index": 12
          }
        }
      },
      "name": "Ropes",
      "normalTexture": {
        "index": 11
      },
      "occlusionTexture": {
        "index": 10
      },
      "pbrMetallicRoughness": {
        "baseColorTexture": {
          "index": 9
        },
        "metallicFactor": 0.0,
        "metallicRoughnessTexture": {
          "index": 10
        }
      }
    }
  ],
  "meshes": [
    {
      "name": "Ship_Boat_0",
      "primitives": [
        {
          "attributes": {
            "NORMAL": 1,
            "POSITION": 0,
            "TANGENT": 2,
            "TEXCOORD_0": 3
          },
          "indices": 4,
          "material": 0,
          "mode": 4
        }
      ]
    },
    {
      "name": "Ship_Curtains_0",
      "primitives": [
        {
          "attributes": {
            "NORMAL": 6,
            "POSITION": 5,
            "TANGENT": 7,
            "TEXCOORD_0": 8
          },
          "indices": 9,
          "material": 1,
          "mode": 4
        }
      ]
    },
    {
      "name": "Ship_Ropes_0",
      "primitives": [
        {
          "attributes": {
            "NORMAL": 11,
            "POSITION": 10,
            "TANGENT": 12,
            "TEXCOORD_0": 13
          },
          "indices": 14,
          "material": 2,
          "mode": 4
        }
      ]
    }
  ],
  "nodes": [
    {
      "children": [
        1
      ],
      "matrix": [
        1.0,
        0.0,
        0.0,
        0.0,
        0.0,
        2.220446049250313e-16,
        -1.0,
        0.0,
        0.0,
        1.0,
        2.220446049250313e-16,
        0.0,
        0.0,
        0.0,
        0.0,
        1.0
      ],
      "name": "Sketchfab_model"
    },
    {
      "children": [
        2
      ],
      "matrix": [
        0.009999999776482582,
        0.0,
        0.0,
        0.0,
        0.0,
        0.0,
        0.009999999776482582,
        0.0,
        0.0,
        -0.009999999776482582,
        0.0,
        0.0,
        0.0,
        0.0,
        0.0,
        1.0
      ],
      "name": "713cf4a6cc5543859179c208108337c0.fbx"
    },
    {
      "children": [
        3
      ],
      "name": "RootNode"
    },
    {
      "children": [
        4,
        5,
        6
      ],
      "matrix": [
        100.0,
        0.0,
        0.0,
        0.0,
        0.0,
        -1.629206793918314e-05,
        -99.99999999999868,
        0.0,
        0.0,
        99.99999999999868,
        -1.629206793918314e-05,
        0.0,
        0.0,
        0.0,
        0.0,
        1.0
      ],
      "name": "Ship"
    },
    {
      "mesh": 0,
      "name": "Ship_Boat_0"
    },
    {
      "mesh": 1,
      "name": "Ship_Curtains_0"
    },
    {
      "mesh": 2,
      "name": "Ship_Ropes_0"
    }
  ],
  "samplers": [
    {
      "magFilter": 9729,
      "minFilter": 9987,
      "wrapS": 10497,
      "wrapT": 10497
    }
  ],
  "scene": 0,
  "scenes": [
    {
      "name": "Sketchfab_Scene",
      "nodes": [
        0
      ]
    }
  ],
  "textures": [
    {
      "sampler": 0,
      "source": 0
    },
    {
      "sampler": 0,
      "source": 1
    },
    {
      "sampler": 0,
      "source": 2
    },
    {
      "sampler": 0,
      "source": 3
    },
    {
      "sampler": 0,
      "source": 4
    },
    {
      "sampler": 0,
      "source": 5
    },
    {
      "sampler": 0,
      "source": 6
    },
    {
      "sampler": 0,
      "source": 7
    },
    {
      "sampler": 0,
      "source": 8
    },
    {
      "sampler": 0,
      "source": 9
    },
    {
      "sampler": 0,
      "source": 10
    },
    {
      "sampler": 0,
      "source": 11
    },
    {
      "sampler": 0,
      "source": 12
    }
  ]
}
